HIERARCHY
ROOT Hips
{
	OFFSET 0.00000 0.00000 0.00000
	CHANNELS 6 Xposition Yposition Zposition Zrotation Yrotation Xrotation 
	JOINT LHipJoint
	{
		OFFSET 0 0 0
		CHANNELS 3 Zrotation Yrotation Xrotation
		JOINT LeftUpLeg
		{
			OFFSET 1.62964 -1.40469 0.78906
			CHANNELS 3 Zrotation Yrotation Xrotation
			JOINT LeftLeg
			{
				OFFSET 2.29640 -6.30932 0.00000
				CHANNELS 3 Zrotation Yrotation Xrotation
				JOINT LeftFoot
				{
					OFFSET 2.29451 -6.30412 0.00000
					CHANNELS 3 Zrotation Yrotation Xrotation
					JOINT LeftToeBase
					{
						OFFSET 0.03611 -0.09921 1.56387
						CHANNELS 3 Zrotation Yrotation Xrotation
						End Site
						{
							OFFSET 0.00000 -0.00000 0.80291
						}
					}
				}
			}
		}
	}
	JOINT RHipJoint
	{
		OFFSET 0 0 0
		CHANNELS 3 Zrotation Yrotation Xrotation
		JOINT RightUpLeg
		{
			OFFSET -1.73712 -1.40469 0.78906
			CHANNELS 3 Zrotation Yrotation Xrotation
			JOINT RightLeg
			{
				OFFSET -2.28137 -6.26801 0.00000
				CHANNELS 3 Zrotation Yrotation Xrotation
				JOINT RightFoot
				{
					OFFSET -2.28681 -6.28298 0.00000
					CHANNELS 3 Zrotation Yrotation Xrotation
					JOINT RightToeBase
					{
						OFFSET -0.15927 -0.43759 1.61103
						CHANNELS 3 Zrotation Yrotation Xrotation
						End Site
						{
							OFFSET -0.00000 -0.00000 0.84630
						}
					}
				}
			}
		}
	}
	JOINT LowerBack
	{
		OFFSET 0 0 0
		CHANNELS 3 Zrotation Yrotation Xrotation
		JOINT Spine
		{
			OFFSET -0.04227 2.04338 -0.00225
			CHANNELS 3 Zrotation Yrotation Xrotation
			JOINT Spine1
			{
				OFFSET -0.02148 2.04482 -0.04273
				CHANNELS 3 Zrotation Yrotation Xrotation
				JOINT Neck
				{
					OFFSET 0 0 0
					CHANNELS 3 Zrotation Yrotation Xrotation
					JOINT Neck1
					{
						OFFSET 0.09180 1.44629 0.19359
						CHANNELS 3 Zrotation Yrotation Xrotation
						JOINT Head
						{
							OFFSET 0.00887 1.40645 0.14750
							CHANNELS 3 Zrotation Yrotation Xrotation
							End Site
							{
								OFFSET -0.00669 1.50671 0.03707
							}
						}
					}
				}
				JOINT LeftShoulder
				{
					OFFSET 0 0 0
					CHANNELS 3 Zrotation Yrotation Xrotation
					JOINT LeftArm
					{
						OFFSET 2.17674 1.86763 -0.06520
						CHANNELS 3 Zrotation Yrotation Xrotation
						JOINT LeftForeArm
						{
							OFFSET 4.65776 -0.00000 0.00000
							CHANNELS 3 Zrotation Yrotation Xrotation
							JOINT LeftHand
							{
								OFFSET 3.55539 -0.00000 0.00000
								CHANNELS 3 Zrotation Yrotation Xrotation
								JOINT LeftFingerBase
								{
									OFFSET 0 0 0
									CHANNELS 3 Zrotation Yrotation Xrotation
									JOINT LeftHandIndex1
									{
										OFFSET 0.70726 -0.00000 0.00000
										CHANNELS 3 Zrotation Yrotation Xrotation
										End Site
										{
											OFFSET 0.57022 -0.00000 0.00000
										}
									}
								}
								JOINT LThumb
								{
									OFFSET 0 0 0
									CHANNELS 3 Zrotation Yrotation Xrotation
									End Site
									{
										OFFSET 0.57892 -0.00000 0.57892
									}
								}
							}
						}
					}
				}
				JOINT RightShoulder
				{
					OFFSET 0 0 0
					CHANNELS 3 Zrotation Yrotation Xrotation
					JOINT RightArm
					{
						OFFSET -2.80694 1.55459 -0.32496
						CHANNELS 3 Zrotation Yrotation Xrotation
						JOINT RightForeArm
						{
							OFFSET -4.71925 -0.00000 -0.00000
							CHANNELS 3 Zrotation Yrotation Xrotation
							JOINT RightHand
							{
								OFFSET -3.56990 -0.00000 0.00000
								CHANNELS 3 Zrotation Yrotation Xrotation
								JOINT RightFingerBase
								{
									OFFSET 0 0 0
									CHANNELS 3 Zrotation Yrotation Xrotation
									JOINT RightHandIndex1
									{
										OFFSET -0.50776 -0.00000 0.00000
										CHANNELS 3 Zrotation Yrotation Xrotation
										End Site
										{
											OFFSET -0.40937 -0.00000 0.00000
										}
									}
								}
								JOINT RThumb
								{
									OFFSET 0 0 0
									CHANNELS 3 Zrotation Yrotation Xrotation
									End Site
									{
										OFFSET -0.41562 -0.00000 0.41562
									}
								}
							}
						}
					}
				}
			}
		}
	}
}
MOTION
Frames: 14
Frame Time: .0083333
10.4249 15.9557 11.2906 163.8820 -2.7973 -137.5610 0.0000 0.0000 0.0000 2.6352 -18.4178 -31.7435 9.2441 16.9623 56.9306 -0.0029 10.1048 -14.3457 0.6078 -4.9899 -13.8799 0.0000 0.0000 0.0000 -9.7438 1.0926 -75.6035 -7.7857 -15.9593 51.7869 -2.1465 1.8441 -27.2232 -2.5235 9.8804 -28.5904 -2.1197 -3.3049 -8.8239 -0.8531 -4.1662 2.9646 -0.3756 -2.1362 8.1762 1.3076 -4.6561 -1.1478 -1.8026 -6.2484 1.3667 -0.8060 -3.1453 0.5044 0.0000 0.0000 0.0000 -68.1412 9.2653 32.6679 17.9308 -28.0684 -4.5166 -0.0000 0.0000 -6.1033 19.7459 -10.7086 -3.8159 -7.1250 0.0000 -0.0000 -5.1665 18.6452 3.2568 0.0000 0.0000 0.0000 75.6842 -5.4338 33.0771 -24.2322 35.4088 -7.8407 0.0000 -0.0000 -7.7651 -3.8240 -50.4826 2.9518 7.1250 -0.0000 -0.0000 63.2886 -71.7850 -45.1826
10.4798 15.9930 11.2477 164.2620 -2.4437 -137.4500 0.0000 0.0000 0.0000 2.3388 -18.5226 -33.3260 9.8918 17.3486 59.1262 0.0432 9.7849 -14.6366 0.8065 -5.7315 -16.0073 0.0000 0.0000 0.0000 -9.0107 1.5741 -75.5460 -7.6621 -15.8650 51.3361 -2.1244 2.3731 -26.9486 -2.3404 9.5418 -27.5052 -2.1674 -3.1938 -9.0748 -0.8011 -4.0039 2.9519 -0.2831 -2.0585 8.3128 1.3310 -4.5328 -1.3814 -1.9060 -6.0846 1.5491 -0.8512 -3.0657 0.5982 0.0000 0.0000 0.0000 -68.4071 9.2030 32.3518 17.7856 -27.8817 -4.4485 -0.0000 0.0000 -5.9168 19.8398 -10.5186 -3.7685 -7.1250 0.0000 -0.0000 -5.0971 18.8383 3.1909 0.0000 0.0000 0.0000 75.9707 -4.9727 33.0292 -24.4132 35.5981 -7.9458 0.0000 -0.0000 -8.0592 -4.3209 -50.2991 3.3271 7.1250 -0.0000 -0.0000 62.4410 -71.8833 -44.5635
10.5374 16.0281 11.2223 164.4650 -2.1340 -136.9250 0.0000 0.0000 0.0000 2.1759 -18.8907 -35.6610 10.6326 17.7506 61.5826 0.1089 9.2139 -14.9025 0.9729 -6.2796 -17.5977 0.0000 0.0000 0.0000 -8.5481 1.9198 -76.1016 -7.6143 -15.8281 51.1610 -2.1051 2.6204 -26.7647 -2.1959 9.2627 -26.6205 -2.3898 -3.1984 -9.4609 -0.7493 -3.9702 2.6731 -0.1109 -2.0494 8.2550 1.2767 -4.4664 -1.5038 -1.9242 -5.9132 1.8613 -0.8562 -2.9518 0.7187 0.0000 -0.0000 0.0000 -68.6628 9.4062 31.9984 17.6832 -27.7496 -4.4007 -0.0000 0.0000 -5.9062 19.6153 -10.3193 -3.6528 -7.1250 0.0000 -0.0000 -5.2534 19.0648 3.2630 0.0000 -0.0000 0.0000 76.2607 -4.7401 33.1259 -24.6292 35.8226 -8.0719 0.0000 -0.0000 -8.3029 -4.6446 -50.2245 3.5729 7.1250 -0.0000 -0.0000 62.0109 -71.9663 -44.2876
10.5955 16.0650 11.1969 164.6430 -1.8340 -136.4920 0.0000 0.0000 0.0000 1.8806 -19.2022 -37.8531 11.3537 18.1039 63.9250 0.1475 8.7956 -14.9677 1.2640 -7.1265 -20.0908 0.0000 0.0000 0.0000 -8.1037 2.2721 -76.4749 -7.5269 -15.7600 50.8402 -2.0849 2.8314 -26.5851 -2.1213 9.1143 -26.1537 -2.7388 -3.3817 -9.7694 -0.5547 -4.1724 2.1414 0.2575 -2.1612 7.9067 0.6299 -4.2783 -0.3075 -1.7184 -5.6435 1.6528 -0.6495 -2.8103 0.4831 0.0000 0.0000 0.0000 -69.3328 10.3323 31.2779 17.6079 -27.6522 -4.3657 -0.0000 0.0000 -5.7026 19.1130 -10.4249 -3.5880 -7.1250 0.0000 -0.0000 -5.6105 18.9901 3.4962 0.0000 0.0000 0.0000 76.1013 -4.9997 33.9149 -24.8349 36.0348 -8.1926 0.0000 -0.0000 -8.4759 -3.5950 -50.6810 2.7827 7.1250 -0.0000 -0.0000 63.9932 -71.7863 -45.7949
10.6381 16.1080 11.1277 165.2490 -1.3995 -137.3020 0.0000 0.0000 0.0000 0.9606 -19.0710 -37.8959 11.7830 18.2974 65.2993 0.1557 8.6770 -14.9484 1.8566 -8.5609 -24.4310 0.0000 0.0000 0.0000 -7.1342 3.0973 -75.0430 -7.2751 -15.5592 49.9072 -2.0662 3.3984 -26.3436 -2.0865 9.0440 -25.9332 -2.4721 -3.0601 -9.3344 -0.7153 -3.7790 2.5637 0.0150 -1.9597 8.0674 0.9452 -4.3161 -1.0292 -1.5688 -5.7102 1.9173 -0.6797 -2.8482 0.6788 0.0000 -0.0000 0.0000 -69.1592 9.9436 31.2315 17.5526 -27.5806 -4.3401 -0.0000 0.0000 -5.5795 18.5112 -10.1411 -3.3738 -7.1250 0.0000 -0.0000 -6.0354 19.3292 3.7181 0.0000 -0.0000 0.0000 76.7786 -4.3155 33.5533 -24.8493 36.0495 -8.2010 0.0000 -0.0000 -8.4152 -2.9363 -50.8470 2.2778 7.1250 -0.0000 -0.0000 64.8877 -71.6204 -46.3838
10.6861 16.1416 11.0905 165.6250 -1.1537 -137.1060 0.0000 0.0000 0.0000 0.5302 -19.2337 -39.5447 12.3135 18.5201 66.9793 0.1639 8.5861 -14.9620 2.5308 -9.8938 -28.6334 0.0000 0.0000 0.0000 -6.1352 3.1967 -74.6263 -6.8802 -15.2302 48.4199 -1.9549 3.9118 -25.5003 -2.0484 8.9662 -25.6897 -2.4372 -2.9880 -9.7049 -0.7081 -3.6730 2.5163 0.0018 -1.9043 8.2260 1.0229 -4.2499 -1.3056 -1.5402 -5.6230 2.2722 -0.6973 -2.8053 0.8347 0.0000 -0.0000 0.0000 -69.2774 9.9724 30.8817 17.5147 -27.5313 -4.3226 -0.0000 0.0000 -5.4670 18.1594 -9.7584 -3.1820 -7.1250 0.0000 -0.0000 -6.2852 19.7518 3.8142 0.0000 -0.0000 0.0000 77.2429 -3.9481 33.4784 -24.9848 36.1885 -8.2809 0.0000 -0.0000 -8.4408 -4.5589 -50.1589 3.5035 7.1250 -0.0000 -0.0000 61.8878 -71.9071 -44.1156
10.7344 16.1777 11.0541 165.9390 -0.8247 -137.0870 0.0000 0.0000 0.0000 -0.0236 -19.5144 -41.0392 12.8185 18.7157 68.5609 0.2134 8.2125 -15.2539 2.5210 -9.8760 -28.5762 0.0000 0.0000 0.0000 -5.6333 3.7377 -74.3585 -6.7422 -15.1109 47.8923 -1.9393 4.1854 -25.3472 -2.0277 8.9236 -25.5566 -2.5581 -2.9910 -9.9702 -0.6800 -3.6543 2.4035 0.0916 -1.8999 8.2673 1.0011 -4.0596 -0.9227 -1.7008 -5.3556 2.3646 -0.7321 -2.6697 0.7990 -0.0000 -0.0000 0.0000 -69.5832 10.2188 30.3690 17.3345 -27.2967 -4.2396 -0.0000 0.0000 -5.2276 18.4527 -9.9099 -3.2866 -7.1250 0.0000 -0.0000 -6.0763 19.5746 3.7101 -0.0000 -0.0000 0.0000 77.5410 -3.9640 33.6652 -25.2802 36.4890 -8.4560 0.0000 -0.0000 -8.4682 -4.7580 -49.9245 3.6443 7.1250 -0.0000 -0.0000 61.1003 -71.8738 -43.4064
10.7795 16.2171 11.0140 166.2920 -0.4350 -137.2770 0.0000 0.0000 0.0000 -0.6607 -19.7764 -42.2098 13.2213 18.8606 69.8113 0.2992 7.4678 -15.6609 2.2320 -9.3334 -26.8440 0.0000 0.0000 0.0000 -5.3339 4.5819 -73.9257 -6.6851 -15.0609 47.6732 -1.9653 4.3719 -25.4938 -2.0060 8.8787 -25.4165 -2.5468 -2.8227 -9.9968 -0.8149 -3.4218 2.6191 -0.0267 -1.7867 8.5001 1.4568 -3.8300 -1.3518 -2.0060 -5.0593 2.3944 -0.9105 -2.5247 0.8668 0.0000 -0.0000 0.0000 -69.4856 9.7890 30.2575 17.1671 -27.0775 -4.1631 -0.0000 0.0000 -4.9722 18.6210 -9.8289 -3.2920 -7.1250 0.0000 -0.0000 -5.9564 19.6481 3.6263 0.0000 -0.0000 0.0000 78.1051 -3.5141 33.4910 -25.5606 36.7715 -8.6233 0.0000 -0.0000 -8.6671 -3.5990 -50.3711 2.7734 7.1250 -0.0000 -0.0000 63.1332 -71.6579 -44.9038
10.8225 16.2544 10.9686 166.6990 0.0100 -137.5790 0.0000 0.0000 0.0000 -1.4227 -19.8940 -43.0941 13.5253 18.9637 70.7494 0.3991 6.6071 -16.1624 2.0530 -8.9756 -25.7189 0.0000 0.0000 0.0000 -4.9292 5.4068 -73.2133 -6.5485 -14.9396 47.1453 -1.9659 4.6727 -25.4524 -1.9565 8.7748 -25.0935 -2.6059 -2.7237 -10.0178 -0.8486 -3.2785 2.6554 -0.0067 -1.7199 8.5494 1.0766 -3.9740 -1.3801 -1.3640 -5.2595 2.6850 -0.6584 -2.6223 0.9838 -0.0000 0.0000 0.0000 -69.6426 9.9685 30.0358 17.0651 -26.9435 -4.1168 -0.0000 0.0000 -4.5706 18.5309 -9.5762 -3.1917 -7.1250 0.0000 -0.0000 -6.0203 19.9182 3.6291 -0.0000 0.0000 0.0000 78.4041 -3.5508 33.7017 -25.9593 37.1685 -8.8631 0.0000 -0.0000 -9.2097 -4.1952 -50.6703 3.2473 7.1250 -0.0000 -0.0000 63.5655 -71.9955 -45.6617
10.8634 16.2889 10.9234 167.1570 0.2896 -137.8410 0.0000 0.0000 0.0000 -2.0352 -20.0830 -44.0247 13.7703 19.0429 71.5016 0.5092 5.7414 -16.7986 1.7855 -8.4041 -23.9484 0.0000 0.0000 0.0000 -4.3305 6.1052 -72.4086 -6.3771 -14.7840 46.4769 -1.9614 5.0719 -25.3665 -1.8357 8.5152 -24.2901 -2.5596 -2.6392 -10.0251 -0.8028 -3.1717 2.6892 0.0333 -1.6664 8.5875 0.9218 -3.8431 -1.5473 -1.2923 -5.0779 3.0810 -0.6204 -2.5311 1.1441 -0.0000 -0.0000 0.0000 -69.8446 9.9714 29.9264 16.8524 -26.6628 -4.0209 -0.0000 0.0000 -4.1268 18.8468 -9.7109 -3.2952 -7.1250 0.0000 -0.0000 -5.7951 19.7567 3.5129 -0.0000 -0.0000 0.0000 78.7100 -3.5775 33.7690 -26.2875 37.4912 -9.0621 0.0000 -0.0000 -9.6400 -4.8830 -50.5183 3.7725 7.1250 -0.0000 -0.0000 62.6760 -72.1778 -45.0975
10.9029 16.3263 10.8838 167.6360 0.4323 -137.9630 0.0000 0.0000 0.0000 -2.4705 -20.3640 -45.2082 13.9481 19.0982 72.0460 0.5674 5.2749 -17.1299 1.9335 -8.7261 -24.9421 0.0000 0.0000 0.0000 -3.7048 6.7765 -71.7345 -6.2116 -14.6303 45.8250 -1.9516 5.3998 -25.2587 -1.6713 8.1449 -23.1551 -2.4826 -2.6435 -10.1193 -0.6476 -3.1907 2.5509 0.1520 -1.6715 8.4975 0.6180 -3.6961 -0.9864 -1.1319 -4.8700 3.1152 -0.5060 -2.4245 1.0724 0.0000 0.0000 0.0000 -70.2553 10.3064 29.6526 16.7201 -26.4873 -3.9617 -0.0000 0.0000 -3.6377 19.2147 -10.0522 -3.4812 -7.1250 0.0000 -0.0000 -5.5351 19.3739 3.4013 0.0000 0.0000 0.0000 78.8020 -3.7461 34.1341 -26.4490 37.6486 -9.1605 0.0000 -0.0000 -9.9606 -4.6577 -50.2399 3.5837 7.1250 -0.0000 -0.0000 62.0453 -71.9777 -44.3299
10.9416 16.3627 10.8455 168.0150 0.5969 -137.9770 0.0000 0.0000 0.0000 -3.0058 -20.6679 -46.5649 14.1096 19.1469 72.5389 0.5753 5.1842 -17.1550 2.5283 -9.8892 -28.6186 0.0000 0.0000 0.0000 -3.2563 7.4054 -71.2248 -6.0708 -14.4966 45.2651 -1.9363 5.5320 -25.1402 -1.5887 7.9511 -22.5656 -2.3548 -2.4236 -10.2880 -0.8161 -2.8967 2.7773 -0.0615 -1.5212 8.8168 1.3787 -3.6957 -1.9253 -1.2787 -4.9026 3.3673 -0.7037 -2.4405 1.2912 0.0000 -0.0000 0.0000 -69.9351 9.5883 29.6853 16.6255 -26.3615 -3.9196 -0.0000 0.0000 -3.4534 19.1250 -10.0907 -3.4768 -7.1250 0.0000 -0.0000 -5.5991 19.3398 3.4453 0.0000 -0.0000 0.0000 79.6033 -3.1569 33.6573 -26.5056 37.7036 -9.1951 0.0000 -0.0000 -10.0650 -4.2910 -50.2419 3.3013 7.1250 -0.0000 -0.0000 62.3031 -71.8479 -44.4051
10.9747 16.3970 10.8018 168.2570 0.7972 -138.1640 0.0000 0.0000 0.0000 -3.8067 -21.0846 -47.5909 14.1587 19.1615 72.6885 0.6039 4.9458 -17.3123 2.8462 -10.4418 -30.4197 0.0000 0.0000 0.0000 -2.9044 7.8845 -70.5590 -5.9522 -14.3818 44.7894 -1.9351 5.5945 -25.1249 -1.5808 7.9322 -22.5083 -2.3746 -2.4638 -10.4589 -0.8175 -2.9423 2.6977 -0.0654 -1.5431 8.8318 1.3202 -3.4986 -1.4565 -1.3966 -4.6199 3.4647 -0.7168 -2.2973 1.2438 -0.0000 -0.0000 0.0000 -70.1970 9.9031 29.2035 16.5806 -26.3015 -3.8997 -0.0000 0.0000 -3.4197 18.6716 -9.8942 -3.3232 -7.1250 0.0000 -0.0000 -5.9205 19.5765 3.6137 -0.0000 -0.0000 0.0000 79.7989 -3.4163 34.0217 -26.7218 37.9126 -9.3277 0.0000 -0.0000 -10.2181 -3.8536 -50.0797 2.9573 7.1250 -0.0000 -0.0000 62.1603 -71.6219 -44.0275
11.0050 16.4321 10.7509 168.5630 1.0229 -138.5980 0.0000 0.0000 0.0000 -4.6701 -21.4853 -48.1440 14.0556 19.1308 72.3742 0.6990 4.2875 -17.9259 2.7172 -10.2225 -29.7004 0.0000 0.0000 0.0000 -2.4184 8.3791 -69.5688 -5.8055 -14.2372 44.1962 -1.9291 5.6676 -25.0761 -1.6016 7.9817 -22.6586 -2.3541 -2.3993 -10.3730 -0.8116 -2.8612 2.7460 -0.0535 -1.5033 8.8316 1.2861 -3.3871 -1.4212 -1.4644 -4.4569 3.8240 -0.7352 -2.2136 1.3529 0.0000 0.0000 0.0000 -70.3943 9.9492 29.0221 16.4941 -26.1861 -3.8614 -0.0000 0.0000 -3.4228 18.3543 -9.6743 -3.1911 -7.1250 0.0000 -0.0000 -6.1463 19.8270 3.7185 0.0000 0.0000 0.0000 80.0102 -3.6183 34.2575 -26.8970 38.0808 -9.4355 0.0000 -0.0000 -10.4020 -3.4945 -50.0080 2.6787 7.1250 -0.0000 -0.0000 62.2168 -71.4635 -43.8962
